<svg width="95" height="26" viewBox="0 0 95 26" fill="none" xmlns="http://www.w3.org/2000/svg">
<path d="M4.30825 25.8C3.17758 25.8 2.30292 25.4693 1.68425 24.808C1.04425 24.1467 0.72425 23.2507 0.72425 22.12C0.72425 21.8427 0.745583 21.576 0.78825 21.32C0.809583 21.064 0.841583 20.8293 0.88425 20.616C1.26825 18.8027 2.23892 16.7227 3.79625 14.376C4.82025 12.7973 5.96158 11.368 7.22025 10.088C8.50025 8.808 9.81225 7.784 11.1562 7.016C12.5216 6.248 13.8336 5.864 15.0923 5.864C15.8176 5.864 16.3509 6.06667 16.6923 6.472C17.0336 6.856 17.2043 7.37867 17.2043 8.04C17.2043 8.808 17.0123 9.69333 16.6283 10.696C16.2229 11.6987 15.7216 12.648 15.1243 13.544C14.5483 14.4187 13.9829 15.0587 13.4283 15.464C13.3429 15.5493 13.2469 15.592 13.1403 15.592C13.0549 15.592 13.0123 15.5387 13.0123 15.432C13.0123 15.1973 13.1616 14.9627 13.4603 14.728C13.7376 14.536 14.0363 14.2053 14.3563 13.736C14.6976 13.2453 15.0176 12.7013 15.3163 12.104C15.6363 11.5067 15.8923 10.9093 16.0843 10.312C16.2976 9.71467 16.4043 9.20267 16.4043 8.776C16.4043 7.752 15.8923 7.24 14.8683 7.24C12.9269 7.24 11.0496 7.98667 9.23625 9.48C8.02025 10.4613 6.91092 11.6133 5.90825 12.936C4.92692 14.2373 4.08425 15.5707 3.38025 16.936C2.69758 18.3013 2.19625 19.592 1.87625 20.808C1.74825 21.2773 1.68425 21.7467 1.68425 22.216C1.68425 23.1333 1.95092 23.8587 2.48425 24.392C2.99625 24.9253 3.70025 25.1493 4.59625 25.064C6.23892 24.9147 8.05225 24.264 10.0363 23.112C11.3376 22.344 12.5963 21.48 13.8123 20.52C15.0283 19.56 16.1589 18.5573 17.2043 17.512C18.2496 16.4453 19.1563 15.4213 19.9243 14.44L18.3883 14.664C17.9189 14.728 17.5243 14.8027 17.2043 14.888C16.9056 14.952 16.7029 15.0053 16.5963 15.048C16.5536 15.0693 16.5003 15.08 16.4363 15.08C16.3083 15.08 16.2443 14.984 16.2443 14.792C16.2443 14.6 16.3083 14.376 16.4363 14.12C16.5856 13.864 16.7456 13.6933 16.9163 13.608C17.4923 13.3093 18.8683 13.0853 21.0443 12.936C21.9829 11.8693 22.9536 10.8027 23.9563 9.736C25.0229 8.584 25.9189 7.60267 26.6443 6.792C27.3696 5.98133 28.0096 5.23467 28.5643 4.552C29.1403 3.848 29.6949 3.12267 30.2283 2.376C30.3989 2.14133 30.5696 2.024 30.7403 2.024C30.8683 2.024 30.9323 2.088 30.9323 2.216C30.9323 2.344 30.8896 2.45067 30.8043 2.536C30.0789 3.56 29.3216 4.56267 28.5323 5.544C27.7429 6.52533 26.8683 7.57067 25.9083 8.68C24.9696 9.768 23.9029 11.0053 22.7083 12.392L22.2923 12.872L23.7643 12.808L26.5803 12.712C26.5589 12.7547 26.6549 12.5627 26.8683 12.136C27.0816 11.688 27.4016 11.0053 27.8283 10.088C28.4256 8.85067 28.9483 7.752 29.3963 6.792C29.8656 5.81067 30.2496 4.968 30.5483 4.264C31.1669 2.87733 31.4869 1.91733 31.5083 1.384C31.5296 1.10667 31.6683 0.893332 31.9243 0.743999C32.1803 0.594666 32.4683 0.519999 32.7883 0.519999C33.0229 0.519999 33.2363 0.562665 33.4283 0.647999C33.6416 0.711999 33.7696 0.797333 33.8123 0.903999C33.9189 1.096 33.7589 1.608 33.3323 2.44C33.0549 3.016 32.7136 3.67733 32.3083 4.424C31.9029 5.17067 31.4443 6.00267 30.9323 6.92C30.2283 8.17867 29.6203 9.288 29.1083 10.248C28.6176 11.208 28.2229 12.0187 27.9243 12.68L30.3883 12.552H30.4843C30.6763 12.552 30.7723 12.616 30.7723 12.744C30.7723 12.8293 30.7189 12.9147 30.6123 13C30.5056 13.0853 30.3669 13.1387 30.1963 13.16L27.6043 13.352C27.5829 13.3947 27.4656 13.6507 27.2523 14.12C27.0389 14.5893 26.7296 15.2613 26.3243 16.136C25.5136 17.928 25.1083 19.4533 25.1083 20.712C25.1083 21.5653 25.4283 21.992 26.0683 21.992C26.2389 21.992 26.4629 21.9067 26.7403 21.736C27.0389 21.5867 27.3163 21.4053 27.5723 21.192C27.8496 20.9787 28.0523 20.7867 28.1803 20.616C28.3296 20.4027 28.4789 20.296 28.6283 20.296C28.7136 20.296 28.7563 20.3387 28.7563 20.424C28.7563 20.5307 28.6709 20.6693 28.5003 20.84C28.2869 21.0747 28.0096 21.3413 27.6683 21.64C27.3269 21.9387 26.9856 22.1947 26.6443 22.408C26.3029 22.6213 26.0149 22.7387 25.7803 22.76C24.4149 22.8453 23.7323 22.2267 23.7323 20.904C23.7323 20.1147 23.9243 19.208 24.3083 18.184C24.7136 17.16 25.2149 15.9653 25.8123 14.6L26.3243 13.448C25.5989 13.512 24.6069 13.672 23.3483 13.928C22.9003 14.0133 22.4949 14.088 22.1323 14.152C21.7909 14.1947 21.5029 14.2373 21.2683 14.28C20.0096 15.7093 18.6549 17.1067 17.2043 18.472C15.7536 19.8373 14.2709 21.0747 12.7563 22.184C11.2629 23.2933 9.79092 24.168 8.34025 24.808C6.91092 25.4693 5.56692 25.8 4.30825 25.8ZM29.2963 22.44C28.8056 22.44 28.5602 22.1733 28.5602 21.64C28.5602 21.2347 28.6669 20.808 28.8803 20.36L31.1523 15.4C31.3229 15.0373 31.5576 14.5573 31.8563 13.96C32.1549 13.3413 32.5176 12.5947 32.9443 11.72C32.9869 11.6347 33.0296 11.5387 33.0723 11.432C33.1363 11.3253 33.2003 11.2187 33.2643 11.112C33.3923 10.8773 33.5203 10.6213 33.6483 10.344L34.0323 9.544C34.4376 8.69067 34.7896 8.01867 35.0883 7.528C35.4083 7.016 35.7603 6.632 36.1443 6.376C36.6349 6.07733 36.9443 5.928 37.0723 5.928C37.2216 5.928 37.3816 6.07733 37.5523 6.376C37.5523 6.39733 37.5523 6.408 37.5523 6.408C37.5736 6.408 37.5843 6.41867 37.5843 6.44C37.5843 6.568 37.4883 6.78133 37.2963 7.08C37.1683 7.272 36.9869 7.53867 36.7523 7.88C36.5389 8.2 36.2723 8.59467 35.9523 9.064C34.7789 10.7493 33.7763 12.2747 32.9443 13.64C32.1336 15.0053 31.4509 16.3813 30.8963 17.768C31.4296 17.2987 31.9949 16.8293 32.5923 16.36C33.2109 15.8907 33.7336 15.528 34.1603 15.272C34.7576 14.9307 35.2803 14.76 35.7283 14.76C36.4109 14.76 36.7523 15.208 36.7523 16.104C36.7523 17.0853 36.4643 17.9813 35.8883 18.792C35.3123 19.5813 34.5123 20.2747 33.4883 20.872C32.4856 21.448 31.3443 21.9173 30.0643 22.28C29.7869 22.3867 29.5309 22.44 29.2963 22.44ZM30.4163 21.288C31.2056 21.288 31.9949 21.0213 32.7843 20.488C33.5736 19.976 34.2136 19.3573 34.7043 18.632C35.2163 17.8853 35.4723 17.224 35.4723 16.648C35.4723 16.2853 35.3549 15.9867 35.1203 15.752C34.9283 15.7093 34.5549 15.848 34.0003 16.168C33.4456 16.4667 32.8483 16.872 32.2083 17.384C31.5896 17.8747 31.0349 18.3867 30.5443 18.92C30.1176 20.2213 29.9469 21 30.0323 21.256L30.4163 21.288ZM38.0695 21.544C37.2375 21.544 36.8215 21.1707 36.8215 20.424C36.8215 20.3813 36.8215 20.3067 36.8215 20.2C36.8428 20.0933 36.8642 19.9653 36.8855 19.816C37.0988 18.9413 37.5255 18.0987 38.1655 17.288C38.8268 16.456 39.5842 15.7307 40.4375 15.112C40.7575 14.856 41.2695 14.728 41.9735 14.728C42.3788 14.728 42.7308 14.792 43.0295 14.92C43.3495 15.0267 43.5735 15.1973 43.7015 15.432C43.8295 15.6453 43.8935 15.8907 43.8935 16.168C43.8935 16.2107 43.8828 16.2747 43.8615 16.36C43.8615 16.4453 43.8508 16.5413 43.8295 16.648C43.8722 16.6267 43.9362 16.616 44.0215 16.616C44.1282 16.616 44.2562 16.6053 44.4055 16.584C44.5548 16.5627 44.6935 16.5413 44.8215 16.52C44.9708 16.4987 45.1202 16.488 45.2695 16.488H45.3975C45.6322 16.488 45.6535 16.584 45.4615 16.776C45.2908 16.9467 45.0562 17.0533 44.7575 17.096L43.6695 17.224C43.4562 17.8213 43.0828 18.4187 42.5495 19.016C42.0375 19.6133 41.4615 20.136 40.8215 20.584C40.2028 21.0107 39.6162 21.288 39.0615 21.416C38.7415 21.5013 38.4108 21.544 38.0695 21.544ZM42.1655 16.776C42.2935 16.776 42.4428 16.776 42.6135 16.776C42.8055 16.7547 43.0188 16.7333 43.2535 16.712C43.2748 16.6693 43.2855 16.5733 43.2855 16.424C43.2855 16.04 43.1255 15.7733 42.8055 15.624C42.6348 15.5173 42.4215 15.464 42.1655 15.464C41.8455 15.464 41.5148 15.5707 41.1735 15.784C40.8535 15.976 40.5122 16.232 40.1495 16.552C40.5975 16.7013 41.2695 16.776 42.1655 16.776ZM39.0295 20.424C39.2428 20.424 39.5415 20.328 39.9255 20.136C40.3308 19.9227 40.7468 19.6453 41.1735 19.304C41.6002 18.9627 41.9842 18.6 42.3255 18.216C42.4322 18.1093 42.5388 17.9813 42.6455 17.832C42.7522 17.6613 42.8695 17.4907 42.9975 17.32L42.2295 17.416C41.0348 17.5867 39.9682 17.6827 39.0295 17.704C38.5602 18.472 38.2722 19.112 38.1655 19.624C38.1442 19.9013 38.2188 20.104 38.3895 20.232C38.5602 20.36 38.7735 20.424 39.0295 20.424ZM50.528 21.928C49.9733 21.928 49.696 21.5227 49.696 20.712C49.696 19.88 49.984 18.6533 50.56 17.032C49.8773 17.9067 49.1947 18.6853 48.512 19.368C47.8507 20.0293 47.1893 20.5733 46.528 21C46.0587 21.3413 45.632 21.512 45.248 21.512C44.736 21.512 44.48 21.16 44.48 20.456C44.48 20.072 44.544 19.72 44.672 19.4C44.8427 18.9307 45.088 18.3867 45.408 17.768C45.7493 17.1493 46.144 16.5307 46.592 15.912C47.04 15.2933 47.4987 14.7707 47.968 14.344C48.1387 14.2373 48.2453 14.184 48.288 14.184C48.4373 14.184 48.512 14.2693 48.512 14.44C48.512 14.504 48.48 14.5893 48.416 14.696C48.224 14.9093 48 15.2187 47.744 15.624C47.488 16.0293 47.2427 16.4667 47.008 16.936C46.7733 17.4053 46.5707 17.8427 46.4 18.248C46.2507 18.632 46.176 18.92 46.176 19.112C46.176 19.496 46.3467 19.688 46.688 19.688C46.8373 19.688 46.9973 19.6347 47.168 19.528C47.9573 19.0373 48.6827 18.4507 49.344 17.768C50.0053 17.064 50.624 16.1147 51.2 14.92C51.392 14.792 51.6053 14.728 51.84 14.728C52.0747 14.728 52.2667 14.8027 52.416 14.952C52.5867 15.1013 52.672 15.304 52.672 15.56C52.672 15.752 52.6187 15.976 52.512 16.232C52.4907 16.3173 52.448 16.4027 52.384 16.488C52.3413 16.5733 52.288 16.6693 52.224 16.776C52.16 16.8827 52.1067 16.9893 52.064 17.096C52.0213 17.1813 51.9787 17.256 51.936 17.32C51.5307 18.0453 51.2107 18.6533 50.976 19.144C50.7627 19.6347 50.656 20.0613 50.656 20.424C50.656 20.8507 50.848 21.064 51.232 21.064C51.5733 21.064 51.9147 20.936 52.256 20.68C52.4693 20.5307 52.6507 20.456 52.8 20.456C53.0347 20.456 52.9813 20.6053 52.64 20.904C52.32 21.1813 51.9253 21.4373 51.456 21.672C51.008 21.8427 50.6987 21.928 50.528 21.928ZM53.896 23.976C53.7893 23.976 53.736 23.88 53.736 23.688C53.736 23.6453 53.736 23.5813 53.736 23.496C53.7573 23.432 53.7787 23.3573 53.8 23.272L55.176 19.816L56.808 15.784C56.552 15.7627 56.1787 15.7733 55.688 15.816C55.1973 15.8373 54.7813 15.88 54.44 15.944C54.312 15.9653 54.2053 15.9867 54.12 16.008C54.056 16.008 54.0027 16.008 53.96 16.008C53.7893 16.008 53.672 15.9333 53.608 15.784C53.6293 15.656 53.7467 15.5387 53.96 15.432C54.0667 15.3893 54.1947 15.3573 54.344 15.336C54.4933 15.2933 54.6747 15.2507 54.888 15.208C55.1227 15.1653 55.3253 15.1333 55.496 15.112C55.688 15.0907 55.8267 15.0693 55.912 15.048C56.0187 15.0267 56.1253 15.0053 56.232 14.984C56.3387 14.9627 56.4667 14.9413 56.616 14.92C56.744 14.8987 56.8827 14.8773 57.032 14.856C57.1813 14.8347 57.3413 14.8027 57.512 14.76C57.6827 14.5253 57.9387 14.1093 58.28 13.512C58.6213 12.9147 59.0587 12.1253 59.592 11.144C60.0187 10.3547 60.36 9.736 60.616 9.288C60.8933 8.81867 61.0853 8.50933 61.192 8.36C61.384 8.104 61.608 7.976 61.864 7.976C61.992 7.976 62.056 8.02933 62.056 8.136C62.056 8.15733 62.0027 8.296 61.896 8.552C61.768 8.76533 61.5547 9.16 61.256 9.736C60.9573 10.312 60.6373 10.9413 60.296 11.624C59.9547 12.3067 59.6453 12.9467 59.368 13.544C59.0907 14.1413 58.8987 14.5787 58.792 14.856C58.8987 14.8347 59.016 14.824 59.144 14.824C59.2933 14.824 59.4747 14.824 59.688 14.824C59.9227 14.824 60.136 14.8347 60.328 14.856C60.5413 14.856 60.7227 14.8667 60.872 14.888C61.1707 14.952 61.32 15.0373 61.32 15.144C61.32 15.1867 61.224 15.2613 61.032 15.368C60.9253 15.4107 60.7227 15.4533 60.424 15.496C60.1253 15.5387 59.7307 15.5813 59.24 15.624C59.112 15.624 58.9733 15.6347 58.824 15.656C58.6747 15.656 58.5147 15.6667 58.344 15.688C57.704 16.7333 56.8293 18.472 55.72 20.904C55.3147 21.7147 55.0053 22.344 54.792 22.792C54.5787 23.24 54.4507 23.5067 54.408 23.592C54.216 23.848 54.0453 23.976 53.896 23.976ZM84.8385 23.784C83.7932 23.784 83.2705 22.952 83.2705 21.288C83.2705 20.648 83.3452 19.9227 83.4945 19.112C83.6438 18.28 83.8252 17.448 84.0385 16.616C84.2732 15.7627 84.5185 14.9733 84.7745 14.248C85.0305 13.5227 85.2652 12.936 85.4785 12.488C85.0732 12.9787 84.5825 13.544 84.0065 14.184C83.4305 14.8027 82.7692 15.5067 82.0225 16.296C81.0198 17.3413 79.9958 18.3333 78.9505 19.272C77.9265 20.2107 76.9665 20.968 76.0705 21.544C75.1958 22.1413 74.4812 22.44 73.9265 22.44C73.2438 22.44 72.7318 22.2267 72.3905 21.8C72.0492 21.3947 71.8785 20.8293 71.8785 20.104C71.8785 19.656 71.9638 19.0907 72.1345 18.408C72.3478 17.576 72.6465 16.7653 73.0305 15.976C73.4358 15.1653 73.9372 14.3013 74.5345 13.384C75.1532 12.4453 75.8892 11.3787 76.7425 10.184C77.8305 8.69067 78.6092 7.56 79.0785 6.792C79.0998 6.74933 79.2065 6.568 79.3985 6.248C79.6118 5.928 79.8465 5.53333 80.1025 5.064C80.3585 4.57333 80.5825 4.08267 80.7745 3.592C80.9665 3.10133 81.0625 2.67467 81.0625 2.312C81.0625 1.94933 80.9025 1.768 80.5825 1.768C79.4945 1.768 78.2038 2.25867 76.7105 3.24C75.6865 3.88 74.6838 4.63733 73.7025 5.512C72.7212 6.38667 71.8358 7.28267 71.0465 8.2C70.2785 9.096 69.6705 9.928 69.2225 10.696C68.8598 11.3787 68.6785 11.9653 68.6785 12.456C68.6785 13.2667 69.1372 13.672 70.0545 13.672C70.4385 13.672 70.6305 13.7787 70.6305 13.992C70.6305 14.0773 70.5878 14.1307 70.5025 14.152C70.3745 14.1947 70.2358 14.216 70.0865 14.216C69.2118 14.216 68.4758 14.0027 67.8785 13.576C67.2812 13.1493 66.9825 12.6053 66.9825 11.944C66.9825 11.5813 67.0998 11.1867 67.3345 10.76C67.6972 10.1413 68.1772 9.46933 68.7745 8.744C69.3718 8.01867 70.0972 7.26133 70.9505 6.472C72.0812 5.40533 73.2545 4.44533 74.4705 3.592C75.6865 2.71733 76.8492 2.024 77.9585 1.512C79.0892 0.999999 80.0492 0.743999 80.8385 0.743999C81.4785 0.743999 81.9585 0.850666 82.2785 1.064C82.5985 1.256 82.7585 1.59733 82.7585 2.088C82.7585 2.62133 82.6198 3.208 82.3425 3.848C82.0652 4.46667 81.6705 5.192 81.1585 6.024C80.9452 6.36533 80.6038 6.84533 80.1345 7.464C79.6865 8.08267 79.1212 8.85067 78.4385 9.768C77.0518 11.56 75.9532 13.0853 75.1425 14.344C74.3318 15.5813 73.7665 16.808 73.4465 18.024C73.2758 18.664 73.1905 19.208 73.1905 19.656C73.1905 20.5947 73.5532 21.064 74.2785 21.064C75.0252 21.064 75.9638 20.6373 77.0945 19.784C78.2465 18.9093 79.5478 17.736 80.9985 16.264C82.4492 14.792 83.9852 13.16 85.6065 11.368C85.9692 10.9627 86.2572 10.6427 86.4705 10.408C86.7052 10.152 86.8652 9.98133 86.9505 9.896L87.7185 8.392C88.2305 7.368 88.6892 6.49333 89.0945 5.768C89.4998 5.02133 89.8945 4.328 90.2785 3.688C90.6838 3.048 91.1212 2.376 91.5905 1.672C91.7612 1.43733 91.9532 1.32 92.1665 1.32C92.4865 1.32 92.7745 1.50133 93.0305 1.864C93.3078 2.22667 93.4038 2.536 93.3185 2.792C93.2118 3.19733 93.0518 3.64533 92.8385 4.136C92.6252 4.62667 92.2732 5.11733 91.7825 5.608L91.7505 5.64C91.3878 6.00267 90.9185 6.568 90.3425 7.336C89.7665 8.08267 89.0412 8.97867 88.1665 10.024C87.6972 10.92 87.2492 11.848 86.8225 12.808C86.3958 13.768 86.0438 14.6853 85.7665 15.56C85.4892 16.4133 85.3078 17.16 85.2225 17.8C85.2012 17.8853 85.1692 18.0347 85.1265 18.248C85.1052 18.4613 85.0732 18.7387 85.0305 19.08C84.9878 19.4213 84.9452 19.752 84.9025 20.072C84.8812 20.3707 84.8705 20.6693 84.8705 20.968C84.8705 21.9067 85.0732 22.376 85.4785 22.376C85.7772 22.376 86.0972 22.312 86.4385 22.184C86.7798 22.056 87.0572 21.9067 87.2705 21.736C87.4412 21.6293 87.5692 21.576 87.6545 21.576C87.7612 21.5333 87.8145 21.5547 87.8145 21.64C87.8358 21.6613 87.8465 21.6933 87.8465 21.736C87.8465 21.8853 87.7505 22.0453 87.5585 22.216C87.1318 22.5787 86.6625 22.9307 86.1505 23.272C85.6385 23.6133 85.2012 23.784 84.8385 23.784ZM87.5877 22.344C87.2464 22.344 86.9477 22.312 86.6917 22.248C86.4571 22.184 86.3397 22.0987 86.3397 21.992C86.3397 21.8213 86.5104 21.7253 86.8517 21.704C87.1717 21.6827 87.3851 21.6507 87.4917 21.608C87.6837 21.5653 87.9078 21.5333 88.1638 21.512C88.3984 21.4693 88.5904 21.4373 88.7398 21.416C89.7638 21.1173 90.2758 20.6587 90.2758 20.04C90.2758 19.6133 90.0518 19.0693 89.6038 18.408C89.3264 18.0027 89.1878 17.5547 89.1878 17.064C89.1878 16.4667 89.3691 15.88 89.7318 15.304C90.1158 14.728 90.5851 14.2267 91.1398 13.8C91.7158 13.352 92.2918 13.0533 92.8678 12.904C93.1238 12.84 93.3904 12.808 93.6678 12.808C94.1158 12.808 94.4358 12.9147 94.6278 13.128C94.7558 13.256 94.8198 13.5333 94.8198 13.96C94.8198 14.28 94.7664 14.6107 94.6598 14.952C94.5531 15.272 94.4038 15.5387 94.2118 15.752C94.1051 15.8587 94.0198 15.912 93.9558 15.912C93.8491 15.912 93.7958 15.7627 93.7958 15.464L93.8278 14.824C93.8491 14.6533 93.8598 14.504 93.8598 14.376C93.8811 14.248 93.8918 14.1413 93.8918 14.056C93.8918 13.6933 93.8171 13.48 93.6678 13.416C93.4971 13.3733 93.3798 13.352 93.3158 13.352C92.8678 13.352 92.3878 13.5547 91.8758 13.96C91.3638 14.3653 90.9478 14.8347 90.6278 15.368C90.4998 15.56 90.4358 15.7947 90.4358 16.072C90.4358 16.4133 90.5211 16.8187 90.6918 17.288C90.8838 17.736 91.0224 18.0667 91.1078 18.28C91.3211 18.7493 91.4811 19.1547 91.5878 19.496C91.7158 19.8373 91.7798 20.136 91.7798 20.392C91.7798 20.52 91.7691 20.616 91.7478 20.68C91.8544 20.6373 92.1104 20.5733 92.5158 20.488C92.8784 20.4027 93.1878 20.36 93.4438 20.36C93.5931 20.36 93.6678 20.392 93.6678 20.456C93.6678 20.4773 93.6038 20.552 93.4758 20.68C93.4118 20.744 93.2091 20.8507 92.8678 21C92.5478 21.128 92.1638 21.2667 91.7158 21.416C91.2891 21.5653 90.8624 21.704 90.4358 21.832C90.0091 21.96 89.6464 22.056 89.3478 22.12C88.8358 22.2693 88.2491 22.344 87.5877 22.344Z" fill="white"/>
</svg>
