<?xml version="1.0" encoding="utf-8"?>
<!-- Generator: Adobe Illustrator 26.0.1, SVG Export Plug-In . SVG Version: 6.00 Build 0)  -->
<svg version="1.1" id="Layer_1" xmlns="http://www.w3.org/2000/svg" xmlns:xlink="http://www.w3.org/1999/xlink" x="0px" y="0px"
	 viewBox="0 0 399.4 184" style="enable-background:new 0 0 399.4 184;" xml:space="preserve">
<style type="text/css">
	.st0{fill:#FFFFFF;}
</style>
<g>
	<path class="st0" d="M27.4,183H6.1V0.9h21.3V183z M53.4,0.9c64.4,0,68.6,32.8,68.6,43.4c0,10.7-3.4,42.4-53.2,42.4
		C91.5,85,99.6,67,99.6,44.4C99.6,12.6,78.9,1.7,53.4,0.9z M53.4,183c35.5,0,48.7-21.6,48.7-48.9c0-34.1-16.8-45.5-33.3-47.3
		c30.2,0,57.1,16.6,57.1,46.8C125.9,166.4,98.5,183,53.4,183z"/>
	<path class="st0" d="M177.4,183h-20.7V0.9h20.7V183z"/>
	<path class="st0" d="M231.7,183H211V0.9h20.7V183z"/>
	<path class="st0" d="M286.6,183h-21.3V0.9h21.3V183z M393.2,183c0,0-51.5,0-60.2,0c37.2-1.8,57.4-10.1,60.2-50.7
		C393.2,138,393.2,183,393.2,183z"/>
</g>
</svg>
