<svg width="52" height="25" viewBox="0 0 52 25" fill="none" xmlns="http://www.w3.org/2000/svg">
<path d="M2.86128 25H0V0H2.86128V25ZM6.35391 0C15.0049 0 15.5691 4.50302 15.5691 5.95826C15.5691 7.42724 15.1124 11.7792 8.42263 11.7792C11.472 11.5459 12.5601 9.07468 12.5601 5.97199C12.5601 1.60626 9.77939 0.10983 6.35391 0ZM6.35391 25C11.1227 25 12.8959 22.0346 12.8959 18.2867C12.8959 13.6052 10.6391 12.0401 8.42263 11.793C12.4795 11.793 16.093 14.0719 16.093 18.218C16.093 22.721 12.4123 25 6.35391 25Z" fill="black"/>
<path d="M23.0111 25H20.2304V0H23.0111V25Z" fill="black"/>
<path d="M30.3053 25H27.5247V0H30.3053V25Z" fill="black"/>
<path d="M37.6802 25H34.8189V0H37.6802V25ZM52 25C52 25 45.0819 25 43.9132 25C48.9104 24.7529 51.6239 23.6134 52 18.0395C52 18.8221 52 25 52 25Z" fill="black"/>
</svg>
