<?xml version="1.0" encoding="UTF-8"?>
<svg version="1.1" xmlns="http://www.w3.org/2000/svg" width="652" height="601">
<path d="M0 0 C215.16 0 430.32 0 652 0 C652 198.33 652 396.66 652 601 C436.84 601 221.68 601 0 601 C0 402.67 0 204.34 0 0 Z " fill="#FEFEFE" transform="translate(0,0)"/>
<path d="M0 0 C0.81339844 0.19335938 1.62679687 0.38671875 2.46484375 0.5859375 C28.4396233 7.24170464 49.38007009 25.4511633 63 48 C75.64774963 69.84327282 80.28045944 96.50373755 73.8359375 121.12890625 C73.56007813 122.07636719 73.28421875 123.02382813 73 124 C72.70996094 125.22009766 72.70996094 125.22009766 72.4140625 126.46484375 C65.77581431 152.37125388 47.56796806 173.48239821 25 187 C17.07376622 191.37506744 8.8028322 194.84337393 0 197 C-0.95003906 197.27714844 -1.90007812 197.55429687 -2.87890625 197.83984375 C-27.51541068 204.27320291 -53.72133996 199.5190721 -75.75537109 187.33154297 C-82.2732115 183.46507554 -88.22143094 178.88678276 -94 174 C-94.85980469 173.27296875 -95.71960938 172.5459375 -96.60546875 171.796875 C-110.0096594 159.36537783 -119.56327379 141.60738515 -124 124 C-124.27714844 123.13503906 -124.55429687 122.27007813 -124.83984375 121.37890625 C-131.87186918 96.97745395 -126.27226091 70.01927142 -114.27978516 48.19287109 C-100.37939741 24.37499954 -78.05982969 7.21423036 -51.54589844 -0.32861328 C-34.71622579 -4.66047399 -16.72741126 -4.87029389 0 0 Z " fill="#5B9BD5" transform="translate(570,395)"/>
<path d="M0 0 C0.81339844 0.19335938 1.62679687 0.38671875 2.46484375 0.5859375 C28.4396233 7.24170464 49.38007009 25.4511633 63 48 C75.64774963 69.84327282 80.28045944 96.50373755 73.8359375 121.12890625 C73.56007812 122.07636719 73.28421875 123.02382813 73 124 C72.70996094 125.22009766 72.70996094 125.22009766 72.4140625 126.46484375 C65.77581431 152.37125388 47.56796806 173.48239821 25 187 C17.07376622 191.37506744 8.8028322 194.84337393 0 197 C-0.95003906 197.27714844 -1.90007812 197.55429687 -2.87890625 197.83984375 C-27.51541068 204.27320291 -53.72133996 199.5190721 -75.75537109 187.33154297 C-82.2732115 183.46507554 -88.22143094 178.88678276 -94 174 C-94.85980469 173.27296875 -95.71960938 172.5459375 -96.60546875 171.796875 C-110.0096594 159.36537783 -119.56327379 141.60738515 -124 124 C-124.27714844 123.13503906 -124.55429688 122.27007813 -124.83984375 121.37890625 C-131.87186918 96.97745395 -126.27226091 70.01927142 -114.27978516 48.19287109 C-100.37939741 24.37499954 -78.05982969 7.21423036 -51.54589844 -0.32861328 C-34.71622579 -4.66047399 -16.72741126 -4.87029389 0 0 Z " fill="#5B9BD5" transform="translate(140,392)"/>
<path d="M0 0 C0.81339844 0.19335938 1.62679687 0.38671875 2.46484375 0.5859375 C28.4396233 7.24170464 49.38007009 25.4511633 63 48 C75.64774963 69.84327282 80.28045944 96.50373755 73.8359375 121.12890625 C73.56007813 122.07636719 73.28421875 123.02382813 73 124 C72.70996094 125.22009766 72.70996094 125.22009766 72.4140625 126.46484375 C65.77581431 152.37125388 47.56796806 173.48239821 25 187 C17.07376622 191.37506744 8.8028322 194.84337393 0 197 C-0.95003906 197.27714844 -1.90007812 197.55429687 -2.87890625 197.83984375 C-27.51541068 204.27320291 -53.72133996 199.5190721 -75.75537109 187.33154297 C-82.2732115 183.46507554 -88.22143094 178.88678276 -94 174 C-94.85980469 173.27296875 -95.71960938 172.5459375 -96.60546875 171.796875 C-110.0096594 159.36537783 -119.56327379 141.60738515 -124 124 C-124.27714844 123.13503906 -124.55429688 122.27007812 -124.83984375 121.37890625 C-131.87186918 96.97745395 -126.27226091 70.01927142 -114.27978516 48.19287109 C-100.37939741 24.37499954 -78.05982969 7.21423036 -51.54589844 -0.32861328 C-34.71622579 -4.66047399 -16.72741126 -4.87029389 0 0 Z " fill="#5C9BD5" transform="translate(354,261)"/>
<path d="M0 0 C20.82358967 16.26533674 35.23328676 41.48911455 38.46484375 67.7734375 C40.94584857 96.36714232 33.02344301 124.02328973 14.66015625 146.26171875 C-1.88219801 165.18829133 -26.08248062 179.57415467 -51.53515625 181.7734375 C-81.50221698 183.48247341 -107.66320248 175.97204602 -130.53515625 155.7734375 C-145.58176277 141.99582189 -154.93178395 125.2154414 -160.53515625 105.7734375 C-160.85484375 104.79890625 -161.17453125 103.824375 -161.50390625 102.8203125 C-168.31129878 79.24656428 -163.0048146 52.92062009 -151.53515625 31.7734375 C-151.04015625 30.85304687 -150.54515625 29.93265625 -150.03515625 28.984375 C-137.76617991 7.44698719 -116.5404526 -10.3679064 -92.53515625 -17.2265625 C-91.92285156 -17.40703125 -91.31054688 -17.5875 -90.6796875 -17.7734375 C-59.00980214 -26.83947818 -26.14942611 -19.62294705 0 0 Z " fill="#5B9BD5" transform="translate(389.53515625,30.2265625)"/>
<path d="M0 0 C3.91277508 3.02814767 5.90969579 5.81321279 6.75 10.75 C6.05385649 15.01387899 4.20466281 16.71010405 1.25 19.8125 C4.37197478 18.5035428 4.37197478 18.5035428 6.25 15.8125 C6.32065617 13.77194995 6.33421976 11.72915743 6.3125 9.6875 C6.30347656 8.59179688 6.29445313 7.49609375 6.28515625 6.3671875 C6.27355469 5.52414062 6.26195312 4.68109375 6.25 3.8125 C6.91 4.1425 7.57 4.4725 8.25 4.8125 C9.45643566 8.43180698 9.57268559 11.00481005 9.25 14.8125 C7.49505919 17.91289543 5.76174333 20.30075667 3.25 22.8125 C4.57 24.1325 5.89 25.4525 7.25 26.8125 C7.91 26.4825 8.57 26.1525 9.25 25.8125 C11.85584243 30.38323168 12.16788556 34.66126292 11.25 39.8125 C8.87048937 44.03844907 5.77267763 47.03399265 1.25 48.8125 C-2.14160156 49.03955078 -2.14160156 49.03955078 -6.140625 49.0078125 C-6.84523865 49.0049826 -7.54985229 49.00215271 -8.27581787 48.99923706 C-10.5173876 48.98807801 -12.75855186 48.96298193 -15 48.9375 C-16.52343171 48.92746464 -18.04686971 48.91833976 -19.5703125 48.91015625 C-23.29700586 48.88815291 -27.02346333 48.85365272 -30.75 48.8125 C-30.75 48.4825 -30.75 48.1525 -30.75 47.8125 C-21.84 47.4825 -12.93 47.1525 -3.75 46.8125 C-17.61 46.3175 -17.61 46.3175 -31.75 45.8125 C-30.76 44.4925 -29.77 43.1725 -28.75 41.8125 C-28.38010978 39.00020486 -28.14961941 36.38019058 -28.0625 33.5625 C-28.02833984 32.81742187 -27.99417969 32.07234375 -27.95898438 31.3046875 C-27.87685946 29.47447508 -27.81174347 27.64351331 -27.75 25.8125 C-29.4 25.8125 -31.05 25.8125 -32.75 25.8125 C-32.75 25.4825 -32.75 25.1525 -32.75 24.8125 C-31.1 24.8125 -29.45 24.8125 -27.75 24.8125 C-27.75 24.1525 -27.75 23.4925 -27.75 22.8125 C-29.4 22.8125 -31.05 22.8125 -32.75 22.8125 C-32.42 21.4925 -32.09 20.1725 -31.75 18.8125 C-30.43 18.8125 -29.11 18.8125 -27.75 18.8125 C-27.86344376 16.6660247 -27.99106345 14.52029408 -28.125 12.375 C-28.19460938 11.18003906 -28.26421875 9.98507812 -28.3359375 8.75390625 C-28.47257812 7.78324219 -28.60921875 6.81257813 -28.75 5.8125 C-29.41 5.4825 -30.07 5.1525 -30.75 4.8125 C-29.75 1.8125 -29.75 1.8125 -27.9921875 0.64453125 C-19.44664678 -3.03597391 -8.41907879 -4.9085404 0 0 Z " fill="#F4F8FC" transform="translate(294.75,337.1875)"/>
<path d="M0 0 C2.79224073 -0.08071788 5.58216566 -0.14035408 8.375 -0.1875 C9.1690625 -0.21263672 9.963125 -0.23777344 10.78125 -0.26367188 C12.85586148 -0.29004405 14.93100865 -0.15486462 17 0 C17.66 0.99 18.32 1.98 19 3 C18.51466797 3.32186279 18.02933594 3.64372559 17.52929688 3.9753418 C15.13927063 7.13953203 15.53221426 10.57945813 15.53125 14.39453125 C15.52363647 15.21950607 15.51602295 16.0444809 15.50817871 16.89445496 C15.49737472 18.64029923 15.49452584 20.38620816 15.49902344 22.13208008 C15.49999287 24.7929397 15.45844016 27.45088718 15.4140625 30.11132812 C15.40885302 31.80988984 15.40616735 33.50846155 15.40625 35.20703125 C15.38985474 35.99785599 15.37345947 36.78868073 15.35656738 37.60346985 C15.3658728 38.35412216 15.37517822 39.10477448 15.38476562 39.87817383 C15.38168396 40.85721428 15.38168396 40.85721428 15.37854004 41.85603333 C16.12422933 44.96443738 16.12422933 44.96443738 21 50 C14.4 50 7.8 50 1 50 C1 49.67 1 49.34 1 49 C8.92 48.505 8.92 48.505 17 48 C11.39 47.67 5.78 47.34 0 47 C0.99 45.68 1.98 44.36 3 43 C3.29317603 40.0011227 3.42063763 37.21602593 3.3984375 34.21875 C3.40130768 33.36825073 3.40417786 32.51775146 3.40713501 31.64147949 C3.40917343 29.84610324 3.40365906 28.05070467 3.39111328 26.25537109 C3.37505605 23.50958528 3.39096903 20.76527137 3.41015625 18.01953125 C3.40817378 16.27343426 3.40433002 14.52733818 3.3984375 12.78125 C3.40451019 11.96136597 3.41058289 11.14148193 3.4168396 10.29675293 C3.36328349 5.94952505 3.18191525 3.13030524 0 0 Z " fill="#F8FBFD" transform="translate(334,336)"/>
<path d="M0 0 C2.79224073 -0.08071788 5.58216566 -0.14035408 8.375 -0.1875 C9.1690625 -0.21263672 9.963125 -0.23777344 10.78125 -0.26367188 C12.85586148 -0.29004405 14.93100865 -0.15486462 17 0 C17.66 0.99 18.32 1.98 19 3 C18.51466797 3.32186279 18.02933594 3.64372559 17.52929688 3.9753418 C15.13927063 7.13953203 15.53221426 10.57945813 15.53125 14.39453125 C15.52363647 15.21950607 15.51602295 16.0444809 15.50817871 16.89445496 C15.49737472 18.64029923 15.49452584 20.38620816 15.49902344 22.13208008 C15.49999287 24.7929397 15.45844016 27.45088718 15.4140625 30.11132812 C15.40885302 31.80988984 15.40616735 33.50846155 15.40625 35.20703125 C15.38985474 35.99785599 15.37345947 36.78868073 15.35656738 37.60346985 C15.3658728 38.35412216 15.37517822 39.10477448 15.38476562 39.87817383 C15.38168396 40.85721428 15.38168396 40.85721428 15.37854004 41.85603333 C16.12422933 44.96443738 16.12422933 44.96443738 21 50 C14.4 50 7.8 50 1 50 C1 49.67 1 49.34 1 49 C8.92 48.505 8.92 48.505 17 48 C11.39 47.67 5.78 47.34 0 47 C0.99 45.68 1.98 44.36 3 43 C3.29317603 40.0011227 3.42063763 37.21602593 3.3984375 34.21875 C3.40130768 33.36825073 3.40417786 32.51775146 3.40713501 31.64147949 C3.40917343 29.84610324 3.40365906 28.05070467 3.39111328 26.25537109 C3.37505605 23.50958528 3.39096903 20.76527137 3.41015625 18.01953125 C3.40817378 16.27343426 3.40433002 14.52733818 3.3984375 12.78125 C3.40451019 11.96136597 3.41058289 11.14148193 3.4168396 10.29675293 C3.36328349 5.94952505 3.18191525 3.13030524 0 0 Z " fill="#F8FBFD" transform="translate(311,336)"/>
<path d="M0 0 C5.61 0 11.22 0 17 0 C15.68 1.32 14.36 2.64 13 4 C12.39633542 5.9983584 12.39633542 5.9983584 12.45410156 8.12597656 C12.42452362 9.32676849 12.42452362 9.32676849 12.39434814 10.55181885 C12.39250519 11.83327789 12.39250519 11.83327789 12.390625 13.140625 C12.37408875 14.02280701 12.35755249 14.90498901 12.34051514 15.81390381 C12.29200806 18.6260065 12.27065845 21.43756832 12.25 24.25 C12.22184254 26.15888142 12.19191543 28.06773761 12.16015625 29.9765625 C12.08624846 34.65099714 12.03669045 39.32513106 12 44 C14.1060986 43.74462428 16.20988754 43.47014626 18.3125 43.1875 C19.48425781 43.03667969 20.65601563 42.88585937 21.86328125 42.73046875 C25.04190188 41.99024203 26.14481902 41.60728137 28 39 C29.20049407 35.89992799 29.20049407 35.89992799 30 33 C32 35 32 35 37 47 C24.79 47 12.58 47 0 47 C0.99 45.68 1.98 44.36 3 43 C3.29317603 40.0011227 3.42063763 37.21602593 3.3984375 34.21875 C3.40130768 33.36825073 3.40417786 32.51775146 3.40713501 31.64147949 C3.40917343 29.84610324 3.40365906 28.05070467 3.39111328 26.25537109 C3.37505605 23.50958528 3.39096903 20.76527137 3.41015625 18.01953125 C3.40817378 16.27343426 3.40433002 14.52733818 3.3984375 12.78125 C3.40451019 11.96136597 3.41058289 11.14148193 3.4168396 10.29675293 C3.35695028 5.43544975 3.04667629 4.06223505 0 0 Z " fill="#F7FAFD" transform="translate(357,336)"/>
<path d="M0 0 C11.46153846 0 11.46153846 0 17 3 C19.37040308 5.37040308 19.34465793 6.06302753 19.4375 9.3125 C19.36459229 13.08547385 19.11280295 13.85366104 16.6875 17 C11.38982366 20.94245681 6.37695128 20.07502296 0 20 C0 13.4 0 6.8 0 0 Z " fill="#5D9CD5" transform="translate(275,360)"/>
<path d="M0 0 C1.2065625 0.0309375 1.2065625 0.0309375 2.4375 0.0625 C2.4375 1.0525 2.4375 2.0425 2.4375 3.0625 C1.4475 3.0625 0.4575 3.0625 -0.5625 3.0625 C-0.5625 4.0525 -0.5625 5.0425 -0.5625 6.0625 C0.7575 6.0625 2.0775 6.0625 3.4375 6.0625 C3.746875 5.258125 4.05625 4.45375 4.375 3.625 C5.4375 1.0625 5.4375 1.0625 6.4375 0.0625 C9.63799657 -0.11049981 12.36704549 0.1527357 15.4375 1.0625 C15.4375 2.0525 15.4375 3.0425 15.4375 4.0625 C13.1275 4.0625 10.8175 4.0625 8.4375 4.0625 C8.1075 4.7225 7.7775 5.3825 7.4375 6.0625 C8.0975 6.0625 8.7575 6.0625 9.4375 6.0625 C9.4375 7.0525 9.4375 8.0425 9.4375 9.0625 C8.4475 9.0625 7.4575 9.0625 6.4375 9.0625 C6.40011719 9.73796875 6.36273438 10.4134375 6.32421875 11.109375 C6.25847656 12.00140625 6.19273438 12.8934375 6.125 13.8125 C6.06699219 14.69421875 6.00898437 15.5759375 5.94921875 16.484375 C5.35780947 19.46399427 4.60518947 20.93945403 2.4375 23.0625 C1.1175 23.0625 -0.2025 23.0625 -1.5625 23.0625 C-1.5625 22.0725 -1.5625 21.0825 -1.5625 20.0625 C-0.9025 19.7325 -0.2425 19.4025 0.4375 19.0625 C1.12479254 16.94403715 1.12479254 16.94403715 1.5625 14.5 C1.73007813 13.67371094 1.89765625 12.84742188 2.0703125 11.99609375 C2.19148438 11.35800781 2.31265625 10.71992188 2.4375 10.0625 C1.1175 9.7325 -0.2025 9.4025 -1.5625 9.0625 C-1.68367188 9.82175781 -1.80484375 10.58101563 -1.9296875 11.36328125 C-2.18105469 12.85408203 -2.18105469 12.85408203 -2.4375 14.375 C-2.59992188 15.36113281 -2.76234375 16.34726562 -2.9296875 17.36328125 C-3.5625 20.0625 -3.5625 20.0625 -5.5625 23.0625 C-8.1875 23.25 -8.1875 23.25 -10.5625 23.0625 C-10.5625 22.0725 -10.5625 21.0825 -10.5625 20.0625 C-9.5725 20.0625 -8.5825 20.0625 -7.5625 20.0625 C-7.2325 15.4425 -6.9025 10.8225 -6.5625 6.0625 C-5.9025 6.0625 -5.2425 6.0625 -4.5625 6.0625 C-4.418125 5.258125 -4.27375 4.45375 -4.125 3.625 C-3.347189 0.08163876 -3.347189 0.08163876 0 0 Z " fill="#EFF5FA" transform="translate(83.5625,479.9375)"/>
<path d="M0 0 C3.28995572 2.25102233 3.90185747 3.60742986 4.875 7.5 C5.00107523 11.03010648 4.92050549 12.16608337 3 15 C0.9765625 16.046875 0.9765625 16.046875 -1.375 16.75 C-2.14585937 16.99234375 -2.91671875 17.2346875 -3.7109375 17.484375 C-6 18 -6 18 -10 18 C-10 13.05 -10 8.1 -10 3 C-3.25 1.875 -3.25 1.875 1 4 C-0.75475062 1.83487677 -0.75475062 1.83487677 -2.875 1.76953125 C-3.926875 1.79080078 -3.926875 1.79080078 -5 1.8125 C-6.051875 1.82216797 -6.051875 1.82216797 -7.125 1.83203125 C-9.09056373 1.89293867 -9.09056373 1.89293867 -11 3 C-11.31241371 5.54941373 -11.51303421 8.00361513 -11.625 10.5625 C-11.66367187 11.27341797 -11.70234375 11.98433594 -11.7421875 12.71679688 C-11.83671783 14.47742425 -11.91945817 16.23867728 -12 18 C-12.33 18 -12.66 18 -13 18 C-13 12.39 -13 6.78 -13 1 C-7.35956514 -0.88014495 -5.48469928 -1.42195907 0 0 Z " fill="#609ED6" transform="translate(288,339)"/>
<path d="M0 0 C0.99 0.66 1.98 1.32 3 2 C3.53189865 7.40763629 3.35406327 10.52791564 0 15 C0.99 15.33 1.98 15.66 3 16 C2.67 16.99 2.34 17.98 2 19 C1.0409375 18.566875 1.0409375 18.566875 0.0625 18.125 C-3.29891424 16.89019477 -6.59552065 16.21407564 -10.109375 15.5625 C-10.73328125 15.376875 -11.3571875 15.19125 -12 15 C-13.55024464 11.89951072 -13.28992015 9.42105782 -13 6 C-9.25114 0.251748 -6.74084331 -0.35478123 0 0 Z " fill="#F2F7FB" transform="translate(301,102)"/>
<path d="M0 0 C1.2065625 0.0309375 1.2065625 0.0309375 2.4375 0.0625 C2.4375 1.0525 2.4375 2.0425 2.4375 3.0625 C1.4475 3.0625 0.4575 3.0625 -0.5625 3.0625 C-0.5625 4.0525 -0.5625 5.0425 -0.5625 6.0625 C0.7575 6.0625 2.0775 6.0625 3.4375 6.0625 C3.746875 5.258125 4.05625 4.45375 4.375 3.625 C5.4375 1.0625 5.4375 1.0625 6.4375 0.0625 C8.10367115 0.02186168 9.77138095 0.019779 11.4375 0.0625 C11.4375 1.0525 11.4375 2.0425 11.4375 3.0625 C10.4475 3.3925 9.4575 3.7225 8.4375 4.0625 C8.1075 4.7225 7.7775 5.3825 7.4375 6.0625 C8.0975 6.0625 8.7575 6.0625 9.4375 6.0625 C9.4375 7.0525 9.4375 8.0425 9.4375 9.0625 C8.4475 9.0625 7.4575 9.0625 6.4375 9.0625 C6.40011719 9.73796875 6.36273438 10.4134375 6.32421875 11.109375 C6.25847656 12.00140625 6.19273437 12.8934375 6.125 13.8125 C6.06699219 14.69421875 6.00898438 15.5759375 5.94921875 16.484375 C5.35780947 19.46399427 4.60518947 20.93945403 2.4375 23.0625 C1.1175 23.0625 -0.2025 23.0625 -1.5625 23.0625 C-1.5625 22.0725 -1.5625 21.0825 -1.5625 20.0625 C-0.9025 19.7325 -0.2425 19.4025 0.4375 19.0625 C1.12479254 16.94403715 1.12479254 16.94403715 1.5625 14.5 C1.73007812 13.67371094 1.89765625 12.84742188 2.0703125 11.99609375 C2.19148438 11.35800781 2.31265625 10.71992188 2.4375 10.0625 C1.1175 9.7325 -0.2025 9.4025 -1.5625 9.0625 C-1.68367188 9.82175781 -1.80484375 10.58101563 -1.9296875 11.36328125 C-2.18105469 12.85408203 -2.18105469 12.85408203 -2.4375 14.375 C-2.59992188 15.36113281 -2.76234375 16.34726562 -2.9296875 17.36328125 C-3.5625 20.0625 -3.5625 20.0625 -5.5625 23.0625 C-8.1875 23.25 -8.1875 23.25 -10.5625 23.0625 C-10.5625 22.0725 -10.5625 21.0825 -10.5625 20.0625 C-9.5725 20.0625 -8.5825 20.0625 -7.5625 20.0625 C-7.2325 15.4425 -6.9025 10.8225 -6.5625 6.0625 C-5.9025 6.0625 -5.2425 6.0625 -4.5625 6.0625 C-4.418125 5.258125 -4.27375 4.45375 -4.125 3.625 C-3.347189 0.08163876 -3.347189 0.08163876 0 0 Z " fill="#EFF5FA" transform="translate(494.5625,482.9375)"/>
<path d="M0 0 C0.99 0.33 1.98 0.66 3 1 C2.51466797 1.48484863 2.02933594 1.96969727 1.52929688 2.46923828 C-0.62807556 6.03937281 -0.46771874 9.43845446 -0.46875 13.4921875 C-0.47636353 14.31574738 -0.48397705 15.13930725 -0.49182129 15.98782349 C-0.50261117 17.72769139 -0.5054799 19.467624 -0.50097656 21.20751953 C-0.50000567 23.85950755 -0.54160511 26.50858694 -0.5859375 29.16015625 C-0.59114606 30.85416066 -0.59383267 32.54817508 -0.59375 34.2421875 C-0.61014526 35.02987518 -0.62654053 35.81756287 -0.64343262 36.62911987 C-0.6341272 37.37654449 -0.62482178 38.12396912 -0.61523438 38.89404297 C-0.61831604 39.86855911 -0.61831604 39.86855911 -0.62145996 40.86276245 C0.12597104 43.96495932 0.12597104 43.96495932 5 49 C-1.6 49 -8.2 49 -15 49 C-15 48.67 -15 48.34 -15 48 C-7.08 47.505 -7.08 47.505 1 47 C-0.65 45.35 -2.3 43.7 -4 42 C-4.62818909 39.98301697 -4.62818909 39.98301697 -4.63110352 38.00756836 C-4.64363663 37.26006821 -4.65616974 36.51256805 -4.66908264 35.74241638 C-4.65582443 34.94956741 -4.64256622 34.15671844 -4.62890625 33.33984375 C-4.63131821 32.51295547 -4.63373016 31.6860672 -4.63621521 30.8341217 C-4.63523855 29.0917581 -4.62188811 27.34936277 -4.59692383 25.60717773 C-4.56255963 22.94212474 -4.57628539 20.28037959 -4.59570312 17.61523438 C-4.58880569 15.91925674 -4.57913423 14.22328765 -4.56640625 12.52734375 C-4.57136612 11.73247055 -4.57632599 10.93759735 -4.58143616 10.11863708 C-4.50242674 6.40499352 -4.32796995 4.40814301 -1.96459961 1.46704102 C-0.9921228 0.74085571 -0.9921228 0.74085571 0 0 Z " fill="#B1CFEB" transform="translate(350,337)"/>
<path d="M0 0 C0.99 0.33 1.98 0.66 3 1 C2.51466797 1.48484863 2.02933594 1.96969727 1.52929688 2.46923828 C-0.62807556 6.03937281 -0.46771874 9.43845446 -0.46875 13.4921875 C-0.47636353 14.31574738 -0.48397705 15.13930725 -0.49182129 15.98782349 C-0.50261117 17.72769139 -0.5054799 19.467624 -0.50097656 21.20751953 C-0.50000567 23.85950755 -0.54160511 26.50858694 -0.5859375 29.16015625 C-0.59114606 30.85416066 -0.59383267 32.54817508 -0.59375 34.2421875 C-0.61014526 35.02987518 -0.62654053 35.81756287 -0.64343262 36.62911987 C-0.6341272 37.37654449 -0.62482178 38.12396912 -0.61523438 38.89404297 C-0.61831604 39.86855911 -0.61831604 39.86855911 -0.62145996 40.86276245 C0.12597104 43.96495932 0.12597104 43.96495932 5 49 C-1.6 49 -8.2 49 -15 49 C-15 48.67 -15 48.34 -15 48 C-7.08 47.505 -7.08 47.505 1 47 C-0.65 45.35 -2.3 43.7 -4 42 C-4.62818909 39.98301697 -4.62818909 39.98301697 -4.63110352 38.00756836 C-4.64363663 37.26006821 -4.65616974 36.51256805 -4.66908264 35.74241638 C-4.65582443 34.94956741 -4.64256622 34.15671844 -4.62890625 33.33984375 C-4.63131821 32.51295547 -4.63373016 31.6860672 -4.63621521 30.8341217 C-4.63523855 29.0917581 -4.62188811 27.34936277 -4.59692383 25.60717773 C-4.56255963 22.94212474 -4.57628539 20.28037959 -4.59570312 17.61523438 C-4.58880569 15.91925674 -4.57913423 14.22328765 -4.56640625 12.52734375 C-4.57136612 11.73247055 -4.57632599 10.93759735 -4.58143616 10.11863708 C-4.50242674 6.40499352 -4.32796995 4.40814301 -1.96459961 1.46704102 C-0.9921228 0.74085571 -0.9921228 0.74085571 0 0 Z " fill="#B1CFEB" transform="translate(327,337)"/>
<path d="M0 0 C-0.48218994 0.71397949 -0.48218994 0.71397949 -0.97412109 1.44238281 C-2.49281224 5.22862947 -2.35792157 8.87610627 -2.4140625 12.921875 C-2.43342865 13.78186096 -2.4527948 14.64184692 -2.4727478 15.52789307 C-2.53241814 18.26849521 -2.5788786 21.00913964 -2.625 23.75 C-2.66319134 25.61069517 -2.70224375 27.47137288 -2.7421875 29.33203125 C-2.83810935 33.88787864 -2.92218668 38.44380879 -3 43 C-3.99 43 -4.98 43 -6 43 C-6.07410727 37.35834639 -6.12858167 31.71697553 -6.16479492 26.07495117 C-6.1798898 24.15530462 -6.20036773 22.2356926 -6.22631836 20.31616211 C-6.26267109 17.55834436 -6.27971912 14.8009822 -6.29296875 12.04296875 C-6.30845261 11.18350143 -6.32393646 10.32403412 -6.33988953 9.43852234 C-6.34011612 8.63791885 -6.34034271 7.83731537 -6.34057617 7.01245117 C-6.34723801 6.3085173 -6.35389984 5.60458344 -6.36076355 4.87931824 C-5.62399993 1.04131046 -3.74239122 0 0 0 Z " fill="#A7C9E8" transform="translate(375,337)"/>
<path d="M0 0 C1.21236328 0.04060547 1.21236328 0.04060547 2.44921875 0.08203125 C3.06410156 0.11683594 3.67898438 0.15164062 4.3125 0.1875 C4.17154936 1.8129308 4.02457913 3.43784051 3.875 5.0625 C3.79378906 5.96742187 3.71257812 6.87234375 3.62890625 7.8046875 C3.3125 10.1875 3.3125 10.1875 2.3125 12.1875 C0.85457116 12.24149736 -0.60392712 12.28029177 -2.0625 12.3125 C-2.87460937 12.33570312 -3.68671875 12.35890625 -4.5234375 12.3828125 C-6.6875 12.1875 -6.6875 12.1875 -8.6875 10.1875 C-8.35522384 4.09577031 -8.35522384 4.09577031 -6.4296875 1.4765625 C-4.15564134 -0.20602771 -2.79636613 -0.12158114 0 0 Z " fill="#F0F5FB" transform="translate(327.6875,105.8125)"/>
<path d="M0 0 C0.99 0 1.98 0 3 0 C3 14.19 3 28.38 3 43 C2.01 43 1.02 43 0 43 C0 28.81 0 14.62 0 0 Z " fill="#789EC0" transform="translate(326,214)"/>
<path d="M0 0 C3.3 0 6.6 0 10 0 C10 0.99 10 1.98 10 3 C7.69 3 5.38 3 3 3 C3 3.99 3 4.98 3 6 C4.65 6 6.3 6 8 6 C7.67 6.99 7.34 7.98 7 9 C5.35 9 3.7 9 2 9 C1.67 10.32 1.34 11.64 1 13 C2.98 13 4.96 13 7 13 C7 13.99 7 14.98 7 16 C3.7 16 0.4 16 -3 16 C-2.54065039 10.33468819 -2.10318672 5.32807302 0 0 Z " fill="#F3F7FB" transform="translate(478,485)"/>
<path d="M0 0 C3.3 0 6.6 0 10 0 C10 0.99 10 1.98 10 3 C7.69 3 5.38 3 3 3 C3 3.99 3 4.98 3 6 C4.65 6 6.3 6 8 6 C7.67 6.99 7.34 7.98 7 9 C5.35 9 3.7 9 2 9 C1.67 10.32 1.34 11.64 1 13 C2.98 13 4.96 13 7 13 C7 13.99 7 14.98 7 16 C3.7 16 0.4 16 -3 16 C-2.54065039 10.33468819 -2.10318672 5.32807302 0 0 Z " fill="#F3F7FB" transform="translate(67,482)"/>
<path d="M0 0 C0.66 0 1.32 0 2 0 C4.60584243 4.57073168 4.91788556 8.84876292 4 14 C1.62048937 18.22594907 -1.47732237 21.22149265 -6 23 C-9.39160156 23.22705078 -9.39160156 23.22705078 -13.390625 23.1953125 C-14.09523865 23.1924826 -14.79985229 23.18965271 -15.52581787 23.18673706 C-17.7673876 23.17557801 -20.00855186 23.15048193 -22.25 23.125 C-23.77343171 23.11496464 -25.29686971 23.10583976 -26.8203125 23.09765625 C-30.54700586 23.07565291 -34.27346333 23.04115272 -38 23 C-38 22.67 -38 22.34 -38 22 C-23.15 21.505 -23.15 21.505 -8 21 C-8 20.34 -8 19.68 -8 19 C-7.05125 18.5875 -6.1025 18.175 -5.125 17.75 C-1.79191456 15.88347215 -1.22733135 15.44596879 0 12 C0.24110759 8.94985072 0.24110759 8.94985072 0.125 5.75 C0.10695313 4.67234375 0.08890625 3.5946875 0.0703125 2.484375 C0.04710937 1.66453125 0.02390625 0.8446875 0 0 Z " fill="#B9D4ED" transform="translate(302,363)"/>
<path d="M0 0 C5.61940506 1.51464028 9.98669152 4.30410142 14.8125 7.4375 C15.63403564 7.96375977 16.45557129 8.49001953 17.30200195 9.03222656 C19.87244371 10.68136567 22.43663227 12.33989107 25 14 C26.67432791 15.07966169 28.34880339 16.15909457 30.0234375 17.23828125 C34.02085907 19.81751427 38.01209736 22.40607613 42 25 C41.34 25.66 40.68 26.32 40 27 C33.98106865 23.28797929 27.96863566 19.5656227 21.9609375 15.83544922 C20.02251243 14.63384304 18.08246696 13.43484602 16.140625 12.23876953 C13.48547454 10.6032081 10.83596874 8.95885231 8.1875 7.3125 C7.36403076 6.8081543 6.54056152 6.30380859 5.69213867 5.78417969 C4.9416626 5.3152832 4.19118652 4.84638672 3.41796875 4.36328125 C2.75563232 3.95376221 2.0932959 3.54424316 1.41088867 3.12231445 C0.94529541 2.75195068 0.47970215 2.38158691 0 2 C0 1.34 0 0.68 0 0 Z " fill="#5D8BB3" transform="translate(415,413)"/>
<path d="M0 0 C11.85714286 0 11.85714286 0 17 3 C18.1875 5.109375 18.1875 5.109375 19 7 C18.34773438 6.79503906 17.69546875 6.59007812 17.0234375 6.37890625 C16.14945312 6.10949219 15.27546875 5.84007812 14.375 5.5625 C13.51648438 5.29566406 12.65796875 5.02882813 11.7734375 4.75390625 C8.89552593 3.97160071 5.9417662 3.49029437 3 3 C3 8.61 3 14.22 3 20 C2.01 20 1.02 20 0 20 C0 13.4 0 6.8 0 0 Z " fill="#99C0E4" transform="translate(275,360)"/>
<path d="M0 0 C0.66 0.33 1.32 0.66 2 1 C1.67 2.65 1.34 4.3 1 6 C-1.31 6.33 -3.62 6.66 -6 7 C-6 7.66 -6 8.32 -6 9 C-4.02 8.67 -2.04 8.34 0 8 C-0.33 9.32 -0.66 10.64 -1 12 C-4.375 12.125 -4.375 12.125 -8 12 C-8.66 11.34 -9.32 10.68 -10 10 C-9.81597683 6.62624187 -9.59820495 3.9760186 -7.8125 1.0625 C-5.15605385 -0.49472705 -3.01703132 -0.25676862 0 0 Z " fill="#EAF2F9" transform="translate(592,489)"/>
<path d="M0 0 C0.625 2.375 0.625 2.375 1 5 C-1 7 -1 7 -4.125 7.125 C-5.07375 7.08375 -6.0225 7.0425 -7 7 C-7 7.66 -7 8.32 -7 9 C-5.02 8.67 -3.04 8.34 -1 8 C-1.33 9.32 -1.66 10.64 -2 12 C-5.375 12.125 -5.375 12.125 -9 12 C-9.66 11.34 -10.32 10.68 -11 10 C-10.81752046 6.6545418 -10.57445993 3.98934766 -8.875 1.0625 C-5.96905769 -0.58420065 -3.26178195 -0.18462917 0 0 Z " fill="#EAF2F9" transform="translate(566,489)"/>
<path d="M0 0 C1.32 0 2.64 0 4 0 C4 2.31 4 4.62 4 7 C4.66 7 5.32 7 6 7 C6.144375 6.21625 6.28875 5.4325 6.4375 4.625 C7 2 7 2 8 0 C9.32 0 10.64 0 12 0 C10.69390696 4.35795402 9.02327625 8.01052866 6.625 11.875 C6.03976563 12.84179688 5.45453125 13.80859375 4.8515625 14.8046875 C4.24054688 15.52914063 3.62953125 16.25359375 3 17 C1.68 17 0.36 17 -1 17 C-0.649375 16.236875 -0.29875 15.47375 0.0625 14.6875 C1.34768287 9.63244739 0.67463171 5.1235543 0 0 Z " fill="#EFF5FA" transform="translate(155,486)"/>
<path d="M0 0 C1.32 0 2.64 0 4 0 C4 2.31 4 4.62 4 7 C4.66 7 5.32 7 6 7 C6.144375 6.21625 6.28875 5.4325 6.4375 4.625 C7 2 7 2 8 0 C9.32 0 10.64 0 12 0 C10.69390696 4.35795402 9.02327625 8.01052866 6.625 11.875 C6.03976562 12.84179688 5.45453125 13.80859375 4.8515625 14.8046875 C4.24054688 15.52914062 3.62953125 16.25359375 3 17 C1.68 17 0.36 17 -1 17 C-0.649375 16.236875 -0.29875 15.47375 0.0625 14.6875 C1.34768287 9.63244739 0.67463171 5.1235543 0 0 Z " fill="#EFF5FA" transform="translate(356,106)"/>
<path d="M0 0 C0.625 2.375 0.625 2.375 1 5 C-1.35953094 7.35953094 -2.77895617 7.49141413 -6 8 C-4.02 8 -2.04 8 0 8 C-0.66 9.32 -1.32 10.64 -2 12 C-4.33294775 12.04241723 -6.66702567 12.04092937 -9 12 C-10 11 -10 11 -10.25 7.6875 C-10 4 -10 4 -8.9375 1.5625 C-6.04961448 -0.76643994 -3.58423038 -0.27050795 0 0 Z " fill="#EBF3F9" transform="translate(514,489)"/>
<path d="M0 0 C0.625 2.375 0.625 2.375 1 5 C-1.35953094 7.35953094 -2.77895617 7.49141413 -6 8 C-4.02 8 -2.04 8 0 8 C-0.66 9.32 -1.32 10.64 -2 12 C-4.33294775 12.04241723 -6.66702567 12.04092937 -9 12 C-10 11 -10 11 -10.25 7.6875 C-10 4 -10 4 -8.9375 1.5625 C-6.04961448 -0.76643994 -3.58423038 -0.27050795 0 0 Z " fill="#EBF3F9" transform="translate(127,486)"/>
<path d="M0 0 C7.71484375 -0.09765625 7.71484375 -0.09765625 10 0 C10.33 0.33 10.66 0.66 11 1 C10.91036938 2.69141656 10.75422324 4.37959602 10.5625 6.0625 C10.46066406 6.98160156 10.35882813 7.90070313 10.25390625 8.84765625 C10.17011719 9.55792969 10.08632812 10.26820313 10 11 C8.68 11.33 7.36 11.66 6 12 C6.33 9.03 6.66 6.06 7 3 C3.13892543 5.57404971 3.05680308 7.61020259 2 12 C0.68 12 -0.64 12 -2 12 C-1.34 8.04 -0.68 4.08 0 0 Z " fill="#EDF4FA" transform="translate(131,486)"/>
<path d="M0 0 C1.32 0 2.64 0 4 0 C4 2.64 4 5.28 4 8 C4.66 8 5.32 8 6 8 C6.33 5.69 6.66 3.38 7 1 C8.32 0.67 9.64 0.34 11 0 C10.85831863 1.43791516 10.71148957 2.8753237 10.5625 4.3125 C10.48128906 5.11300781 10.40007812 5.91351563 10.31640625 6.73828125 C10 9 10 9 9 12 C7.52093108 12.02689216 6.04172517 12.04634621 4.5625 12.0625 C3.32693359 12.07990234 3.32693359 12.07990234 2.06640625 12.09765625 C0 12 0 12 -1 11 C-1.23529412 3.70588235 -1.23529412 3.70588235 0 0 Z " fill="#EEF5FA" transform="translate(307,106)"/>
<path d="M0 0 C0 0.66 0 1.32 0 2 C-2.12036133 3.49291992 -2.12036133 3.49291992 -5.08203125 5.23046875 C-6.16033203 5.86919922 -7.23863281 6.50792969 -8.34960938 7.16601562 C-9.50369854 7.84019944 -10.65799644 8.51402606 -11.8125 9.1875 C-14.02821667 10.49200806 -16.2430669 11.79798892 -18.45703125 13.10546875 C-19.54580566 13.74661621 -20.63458008 14.38776367 -21.75634766 15.04833984 C-25.8568434 17.51555067 -29.86670773 20.10999925 -33.86206055 22.7434082 C-36 24 -36 24 -38 24 C-36.52948591 19.19339425 -32.49357282 17.65079062 -28.375 15.375 C-26.83724806 14.50227542 -25.30082267 13.62720996 -23.765625 12.75 C-22.97865234 12.30140625 -22.19167969 11.8528125 -21.38085938 11.390625 C-16.86356475 8.75213954 -12.47232433 5.90625575 -8.09130859 3.04833984 C-3.32421088 0 -3.32421088 0 0 0 Z " fill="#5C8AB3" transform="translate(241,413)"/>
<path d="M0 0 C1.32 0.33 2.64 0.66 4 1 C4.33 0.67 4.66 0.34 5 0 C6.66617115 -0.04063832 8.33388095 -0.042721 10 0 C11.36884358 4.51718381 10.47075246 7.58774263 9 12 C8.01 12 7.02 12 6 12 C6.33 9.03 6.66 6.06 7 3 C3.13892543 5.57404971 3.05680308 7.61020259 2 12 C0.68 12 -0.64 12 -2 12 C-1.34 8.04 -0.68 4.08 0 0 Z " fill="#EFF5FB" transform="translate(570,489)"/>
<path d="M0 0 C1.4540625 0.0309375 1.4540625 0.0309375 2.9375 0.0625 C2.9375 1.3825 2.9375 2.7025 2.9375 4.0625 C1.9475 4.0625 0.9575 4.0625 -0.0625 4.0625 C0.9275 4.7225 1.9175 5.3825 2.9375 6.0625 C2.5625 8.5 2.5625 8.5 1.9375 11.0625 C-0.77129335 12.41689668 -3.07183268 12.12751451 -6.0625 12.0625 C-6.0625 10.7425 -6.0625 9.4225 -6.0625 8.0625 C-4.4125 8.3925 -2.7625 8.7225 -1.0625 9.0625 C-1.0625 8.4025 -1.0625 7.7425 -1.0625 7.0625 C-2.3825 6.7325 -3.7025 6.4025 -5.0625 6.0625 C-3.98897059 0.08140756 -3.98897059 0.08140756 0 0 Z " fill="#EEF4FA" transform="translate(601.0625,488.9375)"/>
<path d="M0 0 C0.99 0 1.98 0 3 0 C3.66 1.98 4.32 3.96 5 6 C5.99 4.02 6.98 2.04 8 0 C8.99 0 9.98 0 11 0 C10.42365861 4.75481646 8.44931479 7.97048212 6 12 C4.35 12 2.7 12 1 12 C0.01751476 7.9472484 -0.08159574 4.16138263 0 0 Z " fill="#F3F7FB" transform="translate(544,489)"/>
<path d="M0 0 C1.4540625 0.0309375 1.4540625 0.0309375 2.9375 0.0625 C3.2675 1.3825 3.5975 2.7025 3.9375 4.0625 C2.6175 4.0625 1.2975 4.0625 -0.0625 4.0625 C0.9275 4.7225 1.9175 5.3825 2.9375 6.0625 C2.0625 10.9375 2.0625 10.9375 0.9375 12.0625 C-1.06208364 12.10330783 -3.06295254 12.10504356 -5.0625 12.0625 C-5.3925 10.7425 -5.7225 9.4225 -6.0625 8.0625 C-3.5875 8.5575 -3.5875 8.5575 -1.0625 9.0625 C-1.0625 8.4025 -1.0625 7.7425 -1.0625 7.0625 C-2.0525 6.7325 -3.0425 6.4025 -4.0625 6.0625 C-4.105221 4.39638095 -4.10313832 2.72867115 -4.0625 1.0625 C-3.0625 0.0625 -3.0625 0.0625 0 0 Z " fill="#F1F6FB" transform="translate(611.0625,488.9375)"/>
<path d="M0 0 C1.32 0 2.64 0 4 0 C4 0.99 4 1.98 4 3 C4.66 3 5.32 3 6 3 C6 3.99 6 4.98 6 6 C5.01 6.33 4.02 6.66 3 7 C2.67 8.65 2.34 10.3 2 12 C2.66 12 3.32 12 4 12 C4 12.99 4 13.98 4 15 C2.33388095 15.042721 0.66617115 15.04063832 -1 15 C-2 14 -2 14 -2.09765625 11.49609375 C-2.08605469 10.48675781 -2.07445312 9.47742188 -2.0625 8.4375 C-2.05347656 7.42558594 -2.04445313 6.41367187 -2.03515625 5.37109375 C-2.02355469 4.58863281 -2.01195312 3.80617188 -2 3 C-1.34 3 -0.68 3 0 3 C0 2.01 0 1.02 0 0 Z " fill="#F2F7FB" transform="translate(530,486)"/>
<path d="M0 0 C0 1.32 0 2.64 0 4 C-1.65 4.33 -3.3 4.66 -5 5 C-5.33 6.32 -5.66 7.64 -6 9 C-4.35 8.67 -2.7 8.34 -1 8 C-1.33 9.32 -1.66 10.64 -2 12 C-4.875 12.125 -4.875 12.125 -8 12 C-8.66 11.34 -9.32 10.68 -10 10 C-9.81597683 6.62624187 -9.59820495 3.9760186 -7.8125 1.0625 C-5.19357381 -0.47273259 -2.97085195 -0.1980568 0 0 Z " fill="#EFF5FB" transform="translate(153,486)"/>
<path d="M0 0 C0 1.32 0 2.64 0 4 C-1.65 4.33 -3.3 4.66 -5 5 C-5.33 6.32 -5.66 7.64 -6 9 C-4.35 8.67 -2.7 8.34 -1 8 C-1.33 9.32 -1.66 10.64 -2 12 C-4.875 12.125 -4.875 12.125 -8 12 C-8.66 11.34 -9.32 10.68 -10 10 C-9.81597683 6.62624187 -9.59820495 3.9760186 -7.8125 1.0625 C-5.19357381 -0.47273259 -2.97085195 -0.1980568 0 0 Z " fill="#EFF5FB" transform="translate(109,486)"/>
<path d="M0 0 C1.32 0 2.64 0 4 0 C4 0.99 4 1.98 4 3 C4.66 3 5.32 3 6 3 C6 3.99 6 4.98 6 6 C4.68 6 3.36 6 2 6 C2 7.98 2 9.96 2 12 C2.66 12 3.32 12 4 12 C4 12.99 4 13.98 4 15 C2.33388095 15.042721 0.66617115 15.04063832 -1 15 C-2 14 -2 14 -2.09765625 11.49609375 C-2.08605469 10.48675781 -2.07445312 9.47742188 -2.0625 8.4375 C-2.05347656 7.42558594 -2.04445313 6.41367188 -2.03515625 5.37109375 C-2.02355469 4.58863281 -2.01195312 3.80617188 -2 3 C-1.34 3 -0.68 3 0 3 C0 2.01 0 1.02 0 0 Z " fill="#F2F7FB" transform="translate(349,103)"/>
<path d="M0 0 C0.33 1.32 0.66 2.64 1 4 C-0.65 4 -2.3 4 -4 4 C-4.33 5.32 -4.66 6.64 -5 8 C-3.35 8 -1.7 8 0 8 C-0.66 9.32 -1.32 10.64 -2 12 C-3.99954746 12.04254356 -6.00041636 12.04080783 -8 12 C-9 11 -9 11 -9.25 7.6875 C-9 4 -9 4 -7.875 1.5625 C-5.24871143 -0.6260738 -3.31446363 -0.29461899 0 0 Z " fill="#F1F6FB" transform="translate(526,489)"/>
<path d="M0 0 C1.32 0 2.64 0 4 0 C3.69012383 2.25036286 3.37700182 4.50027894 3.0625 6.75 C2.88847656 8.00296875 2.71445312 9.2559375 2.53515625 10.546875 C2.13950662 13.09982593 1.69553578 15.5186291 1 18 C-0.32 18 -1.64 18 -3 18 C-2 12 -1 6 0 0 Z " fill="#EDF4FA" transform="translate(336,100)"/>
<path d="M0 0 C0.598125 0.20625 1.19625 0.4125 1.8125 0.625 C2.17325949 6.03639241 2.17325949 6.03639241 0.625 8.5625 C-1.1875 9.625 -1.1875 9.625 -3.875 9.3125 C-4.638125 9.085625 -5.40125 8.85875 -6.1875 8.625 C-5.875 5.25 -5.875 5.25 -5.1875 1.625 C-2.1875 -0.375 -2.1875 -0.375 0 0 Z " fill="#5F9DD6" transform="translate(298.1875,105.375)"/>
<path d="M0 0 C0.99 0 1.98 0 3 0 C3.17835515 4.54805635 2.99785435 7.8794254 1 12 C0.01 12 -0.98 12 -2 12 C-1.85904936 10.3745692 -1.71207913 8.74965949 -1.5625 7.125 C-1.48128906 6.22007812 -1.40007812 5.31515625 -1.31640625 4.3828125 C-1 2 -1 2 0 0 Z " fill="#EBF2F9" transform="translate(112,486)"/>
<path d="M0 0 C1.32 0 2.64 0 4 0 C3.34 3.96 2.68 7.92 2 12 C0.68 12 -0.64 12 -2 12 C-1.34 8.04 -0.68 4.08 0 0 Z " fill="#EBF3FA" transform="translate(341,106)"/>
<path d="M0 0 C0.99 0 1.98 0 3 0 C2.85904936 1.6254308 2.71207913 3.25034051 2.5625 4.875 C2.48128906 5.77992188 2.40007812 6.68484375 2.31640625 7.6171875 C2 10 2 10 1 12 C0.01 12 -0.98 12 -2 12 C-1.85962479 10.18706911 -1.71255111 8.3746557 -1.5625 6.5625 C-1.48128906 5.55316406 -1.40007812 4.54382813 -1.31640625 3.50390625 C-1 1 -1 1 0 0 Z " fill="#EDF4FA" transform="translate(95,486)"/>
<path d="M0 0 C1.32 0 2.64 0 4 0 C3.34 3.96 2.68 7.92 2 12 C1.01 12 0.02 12 -1 12 C-1.08159574 7.83861737 -0.98248524 4.0527516 0 0 Z " fill="#EEF5FA" transform="translate(538,489)"/>
<path d="M0 0 C1.37432457 3.81756824 0.67975039 7.07255329 0 11 C-0.99 10.67 -1.98 10.34 -3 10 C-3 9.34 -3 8.68 -3 8 C-3.66 8 -4.32 8 -5 8 C-5.3125 5.6875 -5.3125 5.6875 -5 3 C-2.5 1.1875 -2.5 1.1875 0 0 Z " fill="#67A2D8" transform="translate(537,490)"/>
<path d="M0 0 C0.66 0 1.32 0 2 0 C3.30734917 4.64001794 3.72605059 9.21887964 3 14 C1.54957921 16.28720201 0.2043081 17.34676892 -2 19 C-2.99 18.67 -3.98 18.34 -5 18 C-4.195625 17.38125 -3.39125 16.7625 -2.5625 16.125 C0.03874519 14.25835959 0.03874519 14.25835959 1 12 C1.28143104 7.77853434 0.80098121 4.82708507 -1 1 C-0.67 0.67 -0.34 0.34 0 0 Z " fill="#6EA6D9" transform="translate(299,339)"/>
<path d="M0 0 C0.99 0.33 1.98 0.66 3 1 C3.3721042 2.32303717 3.70630173 3.65737935 4 5 C4.66 5.33 5.32 5.66 6 6 C6 6.66 6 7.32 6 8 C1.96825194 7.72510809 0.43105369 7.46508424 -2.375 4.4375 C-3.179375 3.2309375 -3.179375 3.2309375 -4 2 C-2.68 2.33 -1.36 2.66 0 3 C0 2.01 0 1.02 0 0 Z " fill="#68A2D8" transform="translate(604,490)"/>
<path d="M0 0 C0.99 0.33 1.98 0.66 3 1 C2.67 2.32 2.34 3.64 2 5 C0.68 5.33 -0.64 5.66 -2 6 C-1.125 1.125 -1.125 1.125 0 0 Z " fill="#64A0D7" transform="translate(325,109)"/>
<path d="M0 0 C3.4375 0.8125 3.4375 0.8125 7 2 C7.33 2.99 7.66 3.98 8 5 C4.7 4.01 1.4 3.02 -2 2 C-1.34 1.34 -0.68 0.68 0 0 Z " fill="#BDD7EE" transform="translate(286,362)"/>
</svg>
